<mxfile host="app.diagrams.net" modified="2023-10-06T16:33:42.454Z" agent="Mozilla/5.0 (Windows NT 10.0; Win64; x64; rv:109.0) Gecko/20100101 Firefox/118.0" etag="0gRxYngIoK8zTj2RN3cH" version="22.0.3" type="github">
  <diagram id="C5RBs43oDa-KdzZeNtuy" name="Page-1">
    <mxGraphModel dx="1600" dy="873" grid="1" gridSize="10" guides="1" tooltips="1" connect="1" arrows="1" fold="1" page="1" pageScale="1" pageWidth="827" pageHeight="1169" background="none" math="0" shadow="0">
      <root>
        <mxCell id="WIyWlLk6GJQsqaUBKTNV-0" />
        <mxCell id="WIyWlLk6GJQsqaUBKTNV-1" parent="WIyWlLk6GJQsqaUBKTNV-0" />
        <mxCell id="s5LCpLd4Qd4MShCL3k_P-15" style="edgeStyle=orthogonalEdgeStyle;rounded=0;orthogonalLoop=1;jettySize=auto;html=1;exitX=0.5;exitY=1;exitDx=0;exitDy=0;labelBackgroundColor=none;strokeColor=#182E3E;fontColor=default;" parent="WIyWlLk6GJQsqaUBKTNV-1" source="WIyWlLk6GJQsqaUBKTNV-3" target="s5LCpLd4Qd4MShCL3k_P-10" edge="1">
          <mxGeometry relative="1" as="geometry" />
        </mxCell>
        <mxCell id="WIyWlLk6GJQsqaUBKTNV-3" value="Start" style="rounded=1;whiteSpace=wrap;html=1;fontSize=12;glass=0;strokeWidth=1;shadow=0;arcSize=50;labelBackgroundColor=none;fillColor=#56517E;strokeColor=#EEEEEE;fontColor=#FFFFFF;" parent="WIyWlLk6GJQsqaUBKTNV-1" vertex="1">
          <mxGeometry x="440" y="60" width="120" height="40" as="geometry" />
        </mxCell>
        <mxCell id="s5LCpLd4Qd4MShCL3k_P-13" value="" style="edgeStyle=orthogonalEdgeStyle;rounded=0;orthogonalLoop=1;jettySize=auto;html=1;labelBackgroundColor=none;strokeColor=#182E3E;fontColor=default;" parent="WIyWlLk6GJQsqaUBKTNV-1" source="s5LCpLd4Qd4MShCL3k_P-10" target="s5LCpLd4Qd4MShCL3k_P-12" edge="1">
          <mxGeometry relative="1" as="geometry" />
        </mxCell>
        <mxCell id="s5LCpLd4Qd4MShCL3k_P-17" value="" style="edgeStyle=orthogonalEdgeStyle;rounded=0;orthogonalLoop=1;jettySize=auto;html=1;entryX=0.5;entryY=0;entryDx=0;entryDy=0;labelBackgroundColor=none;strokeColor=#182E3E;fontColor=default;" parent="WIyWlLk6GJQsqaUBKTNV-1" source="s5LCpLd4Qd4MShCL3k_P-10" target="s5LCpLd4Qd4MShCL3k_P-35" edge="1">
          <mxGeometry relative="1" as="geometry">
            <mxPoint x="680" y="230" as="targetPoint" />
          </mxGeometry>
        </mxCell>
        <mxCell id="s5LCpLd4Qd4MShCL3k_P-10" value="&lt;div&gt;view page&amp;nbsp;&lt;/div&gt;&lt;div&gt;and button&lt;/div&gt;" style="rounded=0;whiteSpace=wrap;html=1;labelBackgroundColor=none;fillColor=#56517E;strokeColor=#EEEEEE;fontColor=#FFFFFF;" parent="WIyWlLk6GJQsqaUBKTNV-1" vertex="1">
          <mxGeometry x="440" y="140" width="120" height="60" as="geometry" />
        </mxCell>
        <mxCell id="s5LCpLd4Qd4MShCL3k_P-19" value="" style="edgeStyle=orthogonalEdgeStyle;rounded=0;orthogonalLoop=1;jettySize=auto;html=1;labelBackgroundColor=none;strokeColor=#182E3E;fontColor=default;" parent="WIyWlLk6GJQsqaUBKTNV-1" source="s5LCpLd4Qd4MShCL3k_P-12" target="s5LCpLd4Qd4MShCL3k_P-18" edge="1">
          <mxGeometry relative="1" as="geometry" />
        </mxCell>
        <mxCell id="s5LCpLd4Qd4MShCL3k_P-12" value="&lt;div&gt;&amp;nbsp;Tambah Saldo&lt;/div&gt;" style="rounded=0;whiteSpace=wrap;html=1;labelBackgroundColor=none;fillColor=#56517E;strokeColor=#EEEEEE;fontColor=#FFFFFF;" parent="WIyWlLk6GJQsqaUBKTNV-1" vertex="1">
          <mxGeometry x="300" y="230" width="120" height="60" as="geometry" />
        </mxCell>
        <mxCell id="s5LCpLd4Qd4MShCL3k_P-21" value="" style="edgeStyle=orthogonalEdgeStyle;rounded=0;orthogonalLoop=1;jettySize=auto;html=1;labelBackgroundColor=none;strokeColor=#182E3E;fontColor=default;" parent="WIyWlLk6GJQsqaUBKTNV-1" source="s5LCpLd4Qd4MShCL3k_P-18" target="s5LCpLd4Qd4MShCL3k_P-20" edge="1">
          <mxGeometry relative="1" as="geometry" />
        </mxCell>
        <mxCell id="s5LCpLd4Qd4MShCL3k_P-18" value="Input Amount" style="shape=parallelogram;perimeter=parallelogramPerimeter;whiteSpace=wrap;html=1;fixedSize=1;rounded=0;labelBackgroundColor=none;fillColor=#56517E;strokeColor=#EEEEEE;fontColor=#FFFFFF;" parent="WIyWlLk6GJQsqaUBKTNV-1" vertex="1">
          <mxGeometry x="300" y="330" width="120" height="60" as="geometry" />
        </mxCell>
        <mxCell id="s5LCpLd4Qd4MShCL3k_P-23" value="" style="edgeStyle=orthogonalEdgeStyle;rounded=0;orthogonalLoop=1;jettySize=auto;html=1;labelBackgroundColor=none;strokeColor=#182E3E;fontColor=default;" parent="WIyWlLk6GJQsqaUBKTNV-1" source="s5LCpLd4Qd4MShCL3k_P-20" target="s5LCpLd4Qd4MShCL3k_P-22" edge="1">
          <mxGeometry relative="1" as="geometry" />
        </mxCell>
        <mxCell id="s5LCpLd4Qd4MShCL3k_P-24" value="YES" style="edgeLabel;html=1;align=center;verticalAlign=middle;resizable=0;points=[];labelBackgroundColor=none;fontColor=#FFFFFF;" parent="s5LCpLd4Qd4MShCL3k_P-23" vertex="1" connectable="0">
          <mxGeometry x="-0.375" relative="1" as="geometry">
            <mxPoint as="offset" />
          </mxGeometry>
        </mxCell>
        <mxCell id="s5LCpLd4Qd4MShCL3k_P-26" value="" style="edgeStyle=orthogonalEdgeStyle;rounded=0;orthogonalLoop=1;jettySize=auto;html=1;labelBackgroundColor=none;strokeColor=#182E3E;fontColor=default;" parent="WIyWlLk6GJQsqaUBKTNV-1" source="s5LCpLd4Qd4MShCL3k_P-20" target="s5LCpLd4Qd4MShCL3k_P-25" edge="1">
          <mxGeometry relative="1" as="geometry" />
        </mxCell>
        <mxCell id="s5LCpLd4Qd4MShCL3k_P-27" value="No" style="edgeLabel;html=1;align=center;verticalAlign=middle;resizable=0;points=[];labelBackgroundColor=none;fontColor=#FFFFFF;" parent="s5LCpLd4Qd4MShCL3k_P-26" vertex="1" connectable="0">
          <mxGeometry x="-0.0714" y="5" relative="1" as="geometry">
            <mxPoint as="offset" />
          </mxGeometry>
        </mxCell>
        <mxCell id="s5LCpLd4Qd4MShCL3k_P-28" value="NO" style="edgeLabel;html=1;align=center;verticalAlign=middle;resizable=0;points=[];labelBackgroundColor=none;fontColor=#FFFFFF;" parent="s5LCpLd4Qd4MShCL3k_P-26" vertex="1" connectable="0">
          <mxGeometry x="-0.0994" y="4" relative="1" as="geometry">
            <mxPoint as="offset" />
          </mxGeometry>
        </mxCell>
        <mxCell id="s5LCpLd4Qd4MShCL3k_P-20" value="&lt;div&gt;amount is number&lt;/div&gt;&lt;div&gt;amount &amp;gt; 0&lt;/div&gt;" style="rhombus;whiteSpace=wrap;html=1;rounded=0;labelBackgroundColor=none;fillColor=#56517E;strokeColor=#EEEEEE;fontColor=#FFFFFF;" parent="WIyWlLk6GJQsqaUBKTNV-1" vertex="1">
          <mxGeometry x="290" y="420" width="140" height="90" as="geometry" />
        </mxCell>
        <mxCell id="s5LCpLd4Qd4MShCL3k_P-31" value="" style="edgeStyle=orthogonalEdgeStyle;rounded=0;orthogonalLoop=1;jettySize=auto;html=1;labelBackgroundColor=none;strokeColor=#182E3E;fontColor=default;" parent="WIyWlLk6GJQsqaUBKTNV-1" source="s5LCpLd4Qd4MShCL3k_P-22" target="s5LCpLd4Qd4MShCL3k_P-30" edge="1">
          <mxGeometry relative="1" as="geometry" />
        </mxCell>
        <mxCell id="s5LCpLd4Qd4MShCL3k_P-22" value="Delay 1 second" style="whiteSpace=wrap;html=1;rounded=0;labelBackgroundColor=none;fillColor=#56517E;strokeColor=#EEEEEE;fontColor=#FFFFFF;" parent="WIyWlLk6GJQsqaUBKTNV-1" vertex="1">
          <mxGeometry x="300" y="560" width="120" height="40" as="geometry" />
        </mxCell>
        <mxCell id="GMcy1evd45Uw76yjEi0t-0" style="edgeStyle=orthogonalEdgeStyle;rounded=0;orthogonalLoop=1;jettySize=auto;html=1;entryX=0;entryY=0.75;entryDx=0;entryDy=0;labelBackgroundColor=none;strokeColor=#182E3E;fontColor=default;" edge="1" parent="WIyWlLk6GJQsqaUBKTNV-1" source="s5LCpLd4Qd4MShCL3k_P-25" target="s5LCpLd4Qd4MShCL3k_P-53">
          <mxGeometry relative="1" as="geometry">
            <Array as="points">
              <mxPoint x="150" y="860" />
            </Array>
          </mxGeometry>
        </mxCell>
        <mxCell id="s5LCpLd4Qd4MShCL3k_P-25" value="Show Alert Masukkan jumlah deposit yang valid" style="whiteSpace=wrap;html=1;rounded=0;labelBackgroundColor=none;fillColor=#56517E;strokeColor=#EEEEEE;fontColor=#FFFFFF;" parent="WIyWlLk6GJQsqaUBKTNV-1" vertex="1">
          <mxGeometry x="90" y="435" width="120" height="60" as="geometry" />
        </mxCell>
        <mxCell id="s5LCpLd4Qd4MShCL3k_P-33" value="" style="edgeStyle=orthogonalEdgeStyle;rounded=0;orthogonalLoop=1;jettySize=auto;html=1;labelBackgroundColor=none;strokeColor=#182E3E;fontColor=default;" parent="WIyWlLk6GJQsqaUBKTNV-1" source="s5LCpLd4Qd4MShCL3k_P-30" target="s5LCpLd4Qd4MShCL3k_P-32" edge="1">
          <mxGeometry relative="1" as="geometry" />
        </mxCell>
        <mxCell id="s5LCpLd4Qd4MShCL3k_P-30" value="&lt;div&gt;Show Alert&lt;/div&gt;&lt;div&gt;Save Saldo to Local Storage&lt;br&gt;&lt;/div&gt;" style="whiteSpace=wrap;html=1;rounded=0;labelBackgroundColor=none;fillColor=#56517E;strokeColor=#EEEEEE;fontColor=#FFFFFF;" parent="WIyWlLk6GJQsqaUBKTNV-1" vertex="1">
          <mxGeometry x="300" y="620" width="120" height="60" as="geometry" />
        </mxCell>
        <mxCell id="s5LCpLd4Qd4MShCL3k_P-54" style="edgeStyle=orthogonalEdgeStyle;rounded=0;orthogonalLoop=1;jettySize=auto;html=1;entryX=0.5;entryY=0;entryDx=0;entryDy=0;labelBackgroundColor=none;strokeColor=#182E3E;fontColor=default;" parent="WIyWlLk6GJQsqaUBKTNV-1" source="s5LCpLd4Qd4MShCL3k_P-32" target="s5LCpLd4Qd4MShCL3k_P-53" edge="1">
          <mxGeometry relative="1" as="geometry">
            <Array as="points">
              <mxPoint x="360" y="800" />
              <mxPoint x="520" y="800" />
            </Array>
          </mxGeometry>
        </mxCell>
        <mxCell id="s5LCpLd4Qd4MShCL3k_P-32" value="update and show saldo" style="whiteSpace=wrap;html=1;rounded=0;labelBackgroundColor=none;fillColor=#56517E;strokeColor=#EEEEEE;fontColor=#FFFFFF;" parent="WIyWlLk6GJQsqaUBKTNV-1" vertex="1">
          <mxGeometry x="300" y="710" width="120" height="60" as="geometry" />
        </mxCell>
        <mxCell id="s5LCpLd4Qd4MShCL3k_P-34" value="" style="edgeStyle=orthogonalEdgeStyle;rounded=0;orthogonalLoop=1;jettySize=auto;html=1;labelBackgroundColor=none;strokeColor=#182E3E;fontColor=default;" parent="WIyWlLk6GJQsqaUBKTNV-1" source="s5LCpLd4Qd4MShCL3k_P-35" target="s5LCpLd4Qd4MShCL3k_P-37" edge="1">
          <mxGeometry relative="1" as="geometry" />
        </mxCell>
        <mxCell id="s5LCpLd4Qd4MShCL3k_P-35" value="&lt;div&gt;Kurangi Saldo&lt;br&gt;&lt;/div&gt;" style="rounded=0;whiteSpace=wrap;html=1;labelBackgroundColor=none;fillColor=#56517E;strokeColor=#EEEEEE;fontColor=#FFFFFF;" parent="WIyWlLk6GJQsqaUBKTNV-1" vertex="1">
          <mxGeometry x="620" y="230" width="120" height="60" as="geometry" />
        </mxCell>
        <mxCell id="s5LCpLd4Qd4MShCL3k_P-36" value="" style="edgeStyle=orthogonalEdgeStyle;rounded=0;orthogonalLoop=1;jettySize=auto;html=1;labelBackgroundColor=none;strokeColor=#182E3E;fontColor=default;" parent="WIyWlLk6GJQsqaUBKTNV-1" source="s5LCpLd4Qd4MShCL3k_P-37" target="s5LCpLd4Qd4MShCL3k_P-43" edge="1">
          <mxGeometry relative="1" as="geometry" />
        </mxCell>
        <mxCell id="s5LCpLd4Qd4MShCL3k_P-37" value="Input Amount" style="shape=parallelogram;perimeter=parallelogramPerimeter;whiteSpace=wrap;html=1;fixedSize=1;rounded=0;labelBackgroundColor=none;fillColor=#56517E;strokeColor=#EEEEEE;fontColor=#FFFFFF;" parent="WIyWlLk6GJQsqaUBKTNV-1" vertex="1">
          <mxGeometry x="620" y="330" width="120" height="60" as="geometry" />
        </mxCell>
        <mxCell id="s5LCpLd4Qd4MShCL3k_P-38" value="" style="edgeStyle=orthogonalEdgeStyle;rounded=0;orthogonalLoop=1;jettySize=auto;html=1;labelBackgroundColor=none;strokeColor=#182E3E;fontColor=default;" parent="WIyWlLk6GJQsqaUBKTNV-1" source="s5LCpLd4Qd4MShCL3k_P-43" target="s5LCpLd4Qd4MShCL3k_P-45" edge="1">
          <mxGeometry relative="1" as="geometry" />
        </mxCell>
        <mxCell id="s5LCpLd4Qd4MShCL3k_P-39" value="YES" style="edgeLabel;html=1;align=center;verticalAlign=middle;resizable=0;points=[];labelBackgroundColor=none;fontColor=#FFFFFF;" parent="s5LCpLd4Qd4MShCL3k_P-38" vertex="1" connectable="0">
          <mxGeometry x="-0.375" relative="1" as="geometry">
            <mxPoint as="offset" />
          </mxGeometry>
        </mxCell>
        <mxCell id="s5LCpLd4Qd4MShCL3k_P-40" value="" style="edgeStyle=orthogonalEdgeStyle;rounded=0;orthogonalLoop=1;jettySize=auto;html=1;entryX=0;entryY=0.5;entryDx=0;entryDy=0;labelBackgroundColor=none;strokeColor=#182E3E;fontColor=default;" parent="WIyWlLk6GJQsqaUBKTNV-1" source="s5LCpLd4Qd4MShCL3k_P-43" target="s5LCpLd4Qd4MShCL3k_P-47" edge="1">
          <mxGeometry relative="1" as="geometry">
            <mxPoint x="823" y="465" as="targetPoint" />
          </mxGeometry>
        </mxCell>
        <mxCell id="s5LCpLd4Qd4MShCL3k_P-41" value="No" style="edgeLabel;html=1;align=center;verticalAlign=middle;resizable=0;points=[];labelBackgroundColor=none;fontColor=#FFFFFF;" parent="s5LCpLd4Qd4MShCL3k_P-40" vertex="1" connectable="0">
          <mxGeometry x="-0.0714" y="5" relative="1" as="geometry">
            <mxPoint as="offset" />
          </mxGeometry>
        </mxCell>
        <mxCell id="s5LCpLd4Qd4MShCL3k_P-42" value="NO" style="edgeLabel;html=1;align=center;verticalAlign=middle;resizable=0;points=[];labelBackgroundColor=none;fontColor=#FFFFFF;" parent="s5LCpLd4Qd4MShCL3k_P-40" vertex="1" connectable="0">
          <mxGeometry x="-0.0994" y="4" relative="1" as="geometry">
            <mxPoint as="offset" />
          </mxGeometry>
        </mxCell>
        <mxCell id="s5LCpLd4Qd4MShCL3k_P-43" value="&lt;div&gt;amount is number&lt;/div&gt;&lt;div&gt;saldo &amp;gt; amount&lt;br&gt;&lt;/div&gt;" style="rhombus;whiteSpace=wrap;html=1;rounded=0;labelBackgroundColor=none;fillColor=#56517E;strokeColor=#EEEEEE;fontColor=#FFFFFF;" parent="WIyWlLk6GJQsqaUBKTNV-1" vertex="1">
          <mxGeometry x="610" y="420" width="140" height="90" as="geometry" />
        </mxCell>
        <mxCell id="s5LCpLd4Qd4MShCL3k_P-44" value="" style="edgeStyle=orthogonalEdgeStyle;rounded=0;orthogonalLoop=1;jettySize=auto;html=1;labelBackgroundColor=none;strokeColor=#182E3E;fontColor=default;" parent="WIyWlLk6GJQsqaUBKTNV-1" source="s5LCpLd4Qd4MShCL3k_P-45" target="s5LCpLd4Qd4MShCL3k_P-49" edge="1">
          <mxGeometry relative="1" as="geometry" />
        </mxCell>
        <mxCell id="s5LCpLd4Qd4MShCL3k_P-45" value="Delay 1 second" style="whiteSpace=wrap;html=1;rounded=0;labelBackgroundColor=none;fillColor=#56517E;strokeColor=#EEEEEE;fontColor=#FFFFFF;" parent="WIyWlLk6GJQsqaUBKTNV-1" vertex="1">
          <mxGeometry x="620" y="560" width="120" height="40" as="geometry" />
        </mxCell>
        <mxCell id="GMcy1evd45Uw76yjEi0t-1" style="edgeStyle=orthogonalEdgeStyle;rounded=0;orthogonalLoop=1;jettySize=auto;html=1;entryX=1;entryY=0.5;entryDx=0;entryDy=0;labelBackgroundColor=none;strokeColor=#182E3E;fontColor=default;" edge="1" parent="WIyWlLk6GJQsqaUBKTNV-1" source="s5LCpLd4Qd4MShCL3k_P-47" target="s5LCpLd4Qd4MShCL3k_P-53">
          <mxGeometry relative="1" as="geometry">
            <Array as="points">
              <mxPoint x="880" y="850" />
            </Array>
          </mxGeometry>
        </mxCell>
        <mxCell id="s5LCpLd4Qd4MShCL3k_P-47" value="Show Alert " style="whiteSpace=wrap;html=1;rounded=0;labelBackgroundColor=none;fillColor=#56517E;strokeColor=#EEEEEE;fontColor=#FFFFFF;" parent="WIyWlLk6GJQsqaUBKTNV-1" vertex="1">
          <mxGeometry x="820" y="435" width="120" height="60" as="geometry" />
        </mxCell>
        <mxCell id="s5LCpLd4Qd4MShCL3k_P-48" value="" style="edgeStyle=orthogonalEdgeStyle;rounded=0;orthogonalLoop=1;jettySize=auto;html=1;labelBackgroundColor=none;strokeColor=#182E3E;fontColor=default;" parent="WIyWlLk6GJQsqaUBKTNV-1" source="s5LCpLd4Qd4MShCL3k_P-49" target="s5LCpLd4Qd4MShCL3k_P-50" edge="1">
          <mxGeometry relative="1" as="geometry" />
        </mxCell>
        <mxCell id="s5LCpLd4Qd4MShCL3k_P-49" value="&lt;div&gt;Show Alert&lt;/div&gt;&lt;div&gt;Save Saldo to Local Storage&lt;br&gt;&lt;/div&gt;" style="whiteSpace=wrap;html=1;rounded=0;labelBackgroundColor=none;fillColor=#56517E;strokeColor=#EEEEEE;fontColor=#FFFFFF;" parent="WIyWlLk6GJQsqaUBKTNV-1" vertex="1">
          <mxGeometry x="620" y="620" width="120" height="60" as="geometry" />
        </mxCell>
        <mxCell id="s5LCpLd4Qd4MShCL3k_P-55" style="edgeStyle=orthogonalEdgeStyle;rounded=0;orthogonalLoop=1;jettySize=auto;html=1;exitX=0.5;exitY=1;exitDx=0;exitDy=0;labelBackgroundColor=none;strokeColor=#182E3E;fontColor=default;" parent="WIyWlLk6GJQsqaUBKTNV-1" source="s5LCpLd4Qd4MShCL3k_P-50" edge="1">
          <mxGeometry relative="1" as="geometry">
            <mxPoint x="520" y="830" as="targetPoint" />
          </mxGeometry>
        </mxCell>
        <mxCell id="s5LCpLd4Qd4MShCL3k_P-50" value="update and show saldo" style="whiteSpace=wrap;html=1;rounded=0;labelBackgroundColor=none;fillColor=#56517E;strokeColor=#EEEEEE;fontColor=#FFFFFF;" parent="WIyWlLk6GJQsqaUBKTNV-1" vertex="1">
          <mxGeometry x="620" y="710" width="120" height="60" as="geometry" />
        </mxCell>
        <mxCell id="s5LCpLd4Qd4MShCL3k_P-53" value="Finish" style="rounded=1;whiteSpace=wrap;html=1;fontSize=12;glass=0;strokeWidth=1;shadow=0;arcSize=50;labelBackgroundColor=none;fillColor=#56517E;strokeColor=#EEEEEE;fontColor=#FFFFFF;" parent="WIyWlLk6GJQsqaUBKTNV-1" vertex="1">
          <mxGeometry x="460" y="830" width="120" height="40" as="geometry" />
        </mxCell>
      </root>
    </mxGraphModel>
  </diagram>
</mxfile>
